<svg width="375" height="234" viewBox="0 0 375 234" fill="none" xmlns="http://www.w3.org/2000/svg">
<path d="M75.5625 85.5C75.5625 78.0442 81.6067 72 89.0625 72H139.687C147.143 72 153.188 78.0442 153.188 85.5V117H89.0625C81.6067 117 75.5625 110.956 75.5625 103.5V85.5Z" fill="#3D261F"/>
<path d="M108.602 88.4485V97.75H107.333V93.7H102.837V97.75H101.582V88.4485H102.837V92.5525H107.333V88.4485H108.602ZM111.575 94.105H115.49C115.418 93.583 115.206 93.1735 114.855 92.8765C114.513 92.5705 114.086 92.4175 113.573 92.4175C113.042 92.4175 112.592 92.5705 112.223 92.8765C111.863 93.1735 111.647 93.583 111.575 94.105ZM116.705 94.5775C116.705 94.8115 116.7 94.9735 116.691 95.0635H111.575C111.647 95.5855 111.867 96.004 112.236 96.319C112.614 96.625 113.073 96.778 113.613 96.778C114 96.778 114.356 96.6925 114.68 96.5215C115.004 96.3505 115.251 96.112 115.422 95.806C115.539 95.851 115.719 95.923 115.962 96.022C116.205 96.112 116.376 96.175 116.475 96.211C116.214 96.751 115.823 97.165 115.301 97.453C114.779 97.741 114.203 97.885 113.573 97.885C112.655 97.885 111.885 97.579 111.264 96.967C110.652 96.355 110.346 95.5585 110.346 94.5775C110.346 93.5965 110.652 92.809 111.264 92.215C111.885 91.612 112.655 91.3105 113.573 91.3105C114.482 91.3105 115.229 91.612 115.814 92.215C116.408 92.809 116.705 93.5965 116.705 94.5775ZM118.266 88.0165H119.495V97.75H118.266V88.0165ZM121.549 88.0165H122.777V97.75H121.549V88.0165ZM130.043 96.967C129.404 97.579 128.625 97.885 127.707 97.885C126.789 97.885 126.011 97.579 125.372 96.967C124.733 96.355 124.413 95.5585 124.413 94.5775C124.413 93.6055 124.728 92.818 125.358 92.215C125.997 91.612 126.78 91.3105 127.707 91.3105C128.634 91.3105 129.417 91.612 130.056 92.215C130.695 92.818 131.015 93.6055 131.015 94.5775C131.015 95.5495 130.691 96.346 130.043 96.967ZM126.222 96.1165C126.627 96.5035 127.122 96.697 127.707 96.697C128.292 96.697 128.783 96.5035 129.179 96.1165C129.584 95.7205 129.786 95.2075 129.786 94.5775C129.786 93.9565 129.584 93.457 129.179 93.079C128.783 92.701 128.292 92.512 127.707 92.512C127.122 92.512 126.627 92.701 126.222 93.079C125.826 93.457 125.628 93.9565 125.628 94.5775C125.628 95.2075 125.826 95.7205 126.222 96.1165ZM134.013 88.4485L133.892 95.2525H132.933L132.798 88.4485H134.013ZM132.771 97.6555C132.6 97.4935 132.515 97.291 132.515 97.048C132.515 96.805 132.6 96.6025 132.771 96.4405C132.942 96.2785 133.149 96.1975 133.392 96.1975C133.635 96.1975 133.842 96.2785 134.013 96.4405C134.193 96.6025 134.283 96.805 134.283 97.048C134.283 97.291 134.193 97.4935 134.013 97.6555C133.842 97.8085 133.635 97.885 133.392 97.885C133.149 97.885 132.942 97.8085 132.771 97.6555Z" fill="white"/>
<path d="M171.188 13.5C171.188 6.04416 177.232 0 184.688 0H235.312C242.768 0 248.812 6.04416 248.812 13.5V45H184.688C177.232 45 171.188 38.9558 171.188 31.5V13.5Z" fill="#374525"/>
<path d="M197.895 23.0635C197.904 23.4865 198.098 23.869 198.476 24.211C198.854 24.544 199.326 24.7105 199.893 24.7105C200.451 24.7105 200.888 24.58 201.203 24.319C201.518 24.058 201.707 23.734 201.77 23.347C201.806 22.888 201.671 22.5235 201.365 22.2535C201.068 21.9835 200.676 21.7945 200.19 21.6865L198.989 21.3895C197.477 21.0025 196.721 20.1925 196.721 18.9595C196.721 18.1945 197.018 17.569 197.612 17.083C198.206 16.588 198.912 16.3405 199.731 16.3405C200.595 16.3405 201.311 16.5925 201.878 17.0965C202.445 17.5915 202.728 18.2485 202.728 19.0675H201.473C201.473 18.6085 201.306 18.2395 200.973 17.9605C200.649 17.6815 200.231 17.542 199.718 17.542C199.25 17.542 198.84 17.6725 198.489 17.9335C198.147 18.1945 197.976 18.532 197.976 18.946C197.976 19.594 198.417 20.026 199.299 20.242L200.514 20.539C201.396 20.764 202.053 21.124 202.485 21.619C202.917 22.114 203.088 22.726 202.998 23.455C202.917 24.157 202.598 24.7375 202.04 25.1965C201.491 25.6555 200.775 25.885 199.893 25.885C198.966 25.885 198.192 25.606 197.571 25.048C196.95 24.481 196.64 23.8195 196.64 23.0635H197.895ZM208.943 22.8475V19.4455H210.171V25.75H208.943V24.805C208.763 25.156 208.488 25.426 208.119 25.615C207.75 25.795 207.372 25.885 206.985 25.885C206.202 25.885 205.599 25.642 205.176 25.156C204.753 24.67 204.546 23.9815 204.555 23.0905V19.4455H205.784V23.0095C205.784 23.5315 205.905 23.941 206.148 24.238C206.391 24.535 206.729 24.6835 207.161 24.6835C207.665 24.6835 208.088 24.535 208.43 24.238C208.772 23.941 208.943 23.4775 208.943 22.8475ZM213.445 23.455V25.75H212.217V19.4455H213.445V20.863C213.751 19.828 214.336 19.3105 215.2 19.3105C215.695 19.3105 216.06 19.3915 216.294 19.5535L216.105 20.701C215.808 20.557 215.497 20.485 215.173 20.485C214.597 20.485 214.165 20.7595 213.877 21.3085C213.589 21.8485 213.445 22.564 213.445 23.455ZM218.195 22.105H222.11C222.038 21.583 221.826 21.1735 221.475 20.8765C221.133 20.5705 220.706 20.4175 220.193 20.4175C219.662 20.4175 219.212 20.5705 218.843 20.8765C218.483 21.1735 218.267 21.583 218.195 22.105ZM223.325 22.5775C223.325 22.8115 223.32 22.9735 223.311 23.0635H218.195C218.267 23.5855 218.487 24.004 218.856 24.319C219.234 24.625 219.693 24.778 220.233 24.778C220.62 24.778 220.976 24.6925 221.3 24.5215C221.624 24.3505 221.871 24.112 222.042 23.806C222.159 23.851 222.339 23.923 222.582 24.022C222.825 24.112 222.996 24.175 223.095 24.211C222.834 24.751 222.443 25.165 221.921 25.453C221.399 25.741 220.823 25.885 220.193 25.885C219.275 25.885 218.505 25.579 217.884 24.967C217.272 24.355 216.966 23.5585 216.966 22.5775C216.966 21.5965 217.272 20.809 217.884 20.215C218.505 19.612 219.275 19.3105 220.193 19.3105C221.102 19.3105 221.849 19.612 222.434 20.215C223.028 20.809 223.325 21.5965 223.325 22.5775ZM225.035 25.6555C224.864 25.4935 224.778 25.291 224.778 25.048C224.778 24.805 224.864 24.6025 225.035 24.4405C225.206 24.2785 225.413 24.1975 225.656 24.1975C225.899 24.1975 226.106 24.2785 226.277 24.4405C226.457 24.6025 226.547 24.805 226.547 25.048C226.547 25.291 226.457 25.4935 226.277 25.6555C226.106 25.8085 225.899 25.885 225.656 25.885C225.413 25.885 225.206 25.8085 225.035 25.6555Z" fill="white"/>
<path d="M263.438 202.5C263.438 195.044 269.482 189 276.938 189H361.312C368.768 189 374.812 195.044 374.812 202.5V220.5C374.812 227.956 368.768 234 361.312 234H263.438V202.5Z" fill="#1F2E3D"/>
<path d="M285.227 207.698V217H283.958V212.95H279.462V217H278.207V207.698H279.462V211.802H283.958V207.698H285.227ZM292.601 216.217C291.962 216.829 291.183 217.135 290.265 217.135C289.347 217.135 288.569 216.829 287.93 216.217C287.291 215.605 286.971 214.808 286.971 213.827C286.971 212.855 287.286 212.068 287.916 211.465C288.555 210.862 289.338 210.56 290.265 210.56C291.192 210.56 291.975 210.862 292.614 211.465C293.253 212.068 293.573 212.855 293.573 213.827C293.573 214.799 293.249 215.596 292.601 216.217ZM288.78 215.366C289.185 215.753 289.68 215.947 290.265 215.947C290.85 215.947 291.341 215.753 291.737 215.366C292.142 214.97 292.344 214.457 292.344 213.827C292.344 213.206 292.142 212.707 291.737 212.329C291.341 211.951 290.85 211.762 290.265 211.762C289.68 211.762 289.185 211.951 288.78 212.329C288.384 212.707 288.186 213.206 288.186 213.827C288.186 214.457 288.384 214.97 288.78 215.366ZM302.109 217H301.096L299.382 212.369L297.721 217H296.722L294.319 210.695H295.629L297.208 215.11L298.788 210.695H299.976L301.555 215.11L303.135 210.695H304.444L302.109 217ZM313.927 217V216.028C313.72 216.379 313.414 216.653 313.009 216.851C312.604 217.041 312.172 217.135 311.713 217.135C310.822 217.135 310.066 216.829 309.445 216.217C308.824 215.605 308.513 214.813 308.513 213.841C308.513 212.86 308.824 212.068 309.445 211.465C310.066 210.862 310.822 210.56 311.713 210.56C312.172 210.56 312.604 210.655 313.009 210.844C313.423 211.033 313.729 211.298 313.927 211.64V210.695H315.142V217H313.927ZM313.913 213.827C313.913 213.188 313.702 212.684 313.279 212.315C312.856 211.946 312.37 211.762 311.821 211.762C311.236 211.762 310.745 211.955 310.349 212.342C309.962 212.72 309.769 213.215 309.769 213.827C309.769 214.439 309.967 214.943 310.363 215.339C310.759 215.735 311.245 215.933 311.821 215.933C312.406 215.933 312.901 215.744 313.306 215.366C313.711 214.988 313.913 214.475 313.913 213.827ZM318.426 214.705V217H317.198V210.695H318.426V212.113C318.732 211.078 319.317 210.56 320.181 210.56C320.676 210.56 321.041 210.641 321.275 210.803L321.086 211.951C320.789 211.807 320.478 211.735 320.154 211.735C319.578 211.735 319.146 212.009 318.858 212.558C318.57 213.098 318.426 213.814 318.426 214.705ZM323.176 213.355H327.091C327.019 212.833 326.807 212.423 326.456 212.126C326.114 211.82 325.687 211.667 325.174 211.667C324.643 211.667 324.193 211.82 323.824 212.126C323.464 212.423 323.248 212.833 323.176 213.355ZM328.306 213.827C328.306 214.061 328.301 214.223 328.292 214.313H323.176C323.248 214.835 323.468 215.254 323.837 215.569C324.215 215.875 324.674 216.028 325.214 216.028C325.601 216.028 325.957 215.942 326.281 215.771C326.605 215.6 326.852 215.362 327.023 215.056C327.14 215.101 327.32 215.173 327.563 215.272C327.806 215.362 327.977 215.425 328.076 215.461C327.815 216.001 327.424 216.415 326.902 216.703C326.38 216.991 325.804 217.135 325.174 217.135C324.256 217.135 323.486 216.829 322.865 216.217C322.253 215.605 321.947 214.808 321.947 213.827C321.947 212.846 322.253 212.059 322.865 211.465C323.486 210.862 324.256 210.56 325.174 210.56C326.083 210.56 326.83 210.862 327.415 211.465C328.009 212.059 328.306 212.846 328.306 213.827ZM334.732 220.065H333.45L334.773 216.811L332.248 210.695H333.558L335.448 215.258L337.338 210.695H338.647L334.732 220.065ZM344.966 216.217C344.327 216.829 343.549 217.135 342.631 217.135C341.713 217.135 340.934 216.829 340.295 216.217C339.656 215.605 339.337 214.808 339.337 213.827C339.337 212.855 339.652 212.068 340.282 211.465C340.921 210.862 341.704 210.56 342.631 210.56C343.558 210.56 344.341 210.862 344.98 211.465C345.619 212.068 345.938 212.855 345.938 213.827C345.938 214.799 345.614 215.596 344.966 216.217ZM341.146 215.366C341.551 215.753 342.046 215.947 342.631 215.947C343.216 215.947 343.706 215.753 344.102 215.366C344.507 214.97 344.71 214.457 344.71 213.827C344.71 213.206 344.507 212.707 344.102 212.329C343.706 211.951 343.216 211.762 342.631 211.762C342.046 211.762 341.551 211.951 341.146 212.329C340.75 212.707 340.552 213.206 340.552 213.827C340.552 214.457 340.75 214.97 341.146 215.366ZM351.879 214.097V210.695H353.108V217H351.879V216.055C351.699 216.406 351.425 216.676 351.056 216.865C350.687 217.045 350.309 217.135 349.922 217.135C349.139 217.135 348.536 216.892 348.113 216.406C347.69 215.92 347.483 215.231 347.492 214.34V210.695H348.72V214.259C348.72 214.781 348.842 215.191 349.085 215.488C349.328 215.785 349.665 215.933 350.097 215.933C350.601 215.933 351.024 215.785 351.366 215.488C351.708 215.191 351.879 214.727 351.879 214.097ZM355.869 210.412H354.708C354.708 209.566 354.964 208.886 355.477 208.373C355.99 207.851 356.62 207.59 357.367 207.59C358.123 207.59 358.771 207.833 359.311 208.319C359.86 208.805 360.135 209.44 360.135 210.223C360.135 210.853 359.95 211.393 359.581 211.843C359.212 212.293 358.749 212.603 358.191 212.774C357.867 212.873 357.624 212.99 357.462 213.125C357.309 213.26 357.232 213.472 357.232 213.76L357.205 214.502H356.017V213.76C356.017 213.148 356.17 212.684 356.476 212.369C356.791 212.045 357.241 211.793 357.826 211.613C358.123 211.532 358.38 211.357 358.596 211.087C358.821 210.817 358.933 210.529 358.933 210.223C358.933 209.8 358.776 209.458 358.461 209.197C358.146 208.927 357.781 208.792 357.367 208.792C356.962 208.792 356.611 208.94 356.314 209.237C356.017 209.534 355.869 209.926 355.869 210.412ZM355.99 216.892C355.819 216.73 355.734 216.527 355.734 216.284C355.734 216.041 355.819 215.839 355.99 215.677C356.17 215.515 356.382 215.434 356.625 215.434C356.868 215.434 357.075 215.515 357.246 215.677C357.417 215.839 357.502 216.041 357.502 216.284C357.502 216.527 357.417 216.73 357.246 216.892C357.075 217.045 356.868 217.122 356.625 217.122C356.382 217.122 356.17 217.045 355.99 216.892Z" fill="white"/>
<path d="M0.1875 174.375C0.1875 166.919 6.23166 160.875 13.6875 160.875H135.188C142.643 160.875 148.688 166.919 148.688 174.375V192.375C148.688 199.831 142.643 205.875 135.187 205.875H0.1875V174.375Z" fill="#3D1F2F"/>
<path d="M21.9765 179.573V188.875H20.7075V184.825H16.212V188.875H14.9565V179.573H16.212V183.677H20.7075V179.573H21.9765ZM29.3508 188.092C28.7118 188.704 27.9333 189.01 27.0153 189.01C26.0973 189.01 25.3188 188.704 24.6798 188.092C24.0408 187.48 23.7213 186.683 23.7213 185.702C23.7213 184.73 24.0363 183.943 24.6663 183.34C25.3053 182.737 26.0883 182.435 27.0153 182.435C27.9423 182.435 28.7253 182.737 29.3643 183.34C30.0033 183.943 30.3228 184.73 30.3228 185.702C30.3228 186.674 29.9988 187.471 29.3508 188.092ZM25.5303 187.241C25.9353 187.628 26.4303 187.822 27.0153 187.822C27.6003 187.822 28.0908 187.628 28.4868 187.241C28.8918 186.845 29.0943 186.332 29.0943 185.702C29.0943 185.081 28.8918 184.582 28.4868 184.204C28.0908 183.826 27.6003 183.637 27.0153 183.637C26.4303 183.637 25.9353 183.826 25.5303 184.204C25.1343 184.582 24.9363 185.081 24.9363 185.702C24.9363 186.332 25.1343 186.845 25.5303 187.241ZM38.859 188.875H37.8465L36.132 184.244L34.4715 188.875H33.4725L31.0695 182.57H32.379L33.9585 186.985L35.538 182.57H36.726L38.3055 186.985L39.885 182.57H41.1945L38.859 188.875ZM52.3722 188.875H51.3597L49.6452 184.244L47.9847 188.875H46.9857L44.5827 182.57H45.8922L47.4717 186.985L49.0512 182.57H50.2392L51.8187 186.985L53.3982 182.57H54.7077L52.3722 188.875ZM60.8809 188.875V187.903C60.6739 188.254 60.3679 188.528 59.9629 188.726C59.5579 188.916 59.1259 189.01 58.6669 189.01C57.7759 189.01 57.0199 188.704 56.3989 188.092C55.7779 187.48 55.4674 186.688 55.4674 185.716C55.4674 184.735 55.7779 183.943 56.3989 183.34C57.0199 182.737 57.7759 182.435 58.6669 182.435C59.1259 182.435 59.5579 182.53 59.9629 182.719C60.3769 182.908 60.6829 183.173 60.8809 183.515V182.57H62.0959V188.875H60.8809ZM60.8674 185.702C60.8674 185.063 60.6559 184.559 60.2329 184.19C59.8099 183.821 59.3239 183.637 58.7749 183.637C58.1899 183.637 57.6994 183.83 57.3034 184.217C56.9164 184.595 56.7229 185.09 56.7229 185.702C56.7229 186.314 56.9209 186.818 57.3169 187.214C57.7129 187.61 58.1989 187.808 58.7749 187.808C59.3599 187.808 59.8549 187.619 60.2599 187.241C60.6649 186.863 60.8674 186.35 60.8674 185.702ZM65.583 186.094C64.98 185.932 64.5345 185.689 64.2465 185.365C63.9585 185.041 63.8415 184.6 63.8955 184.042C63.9405 183.583 64.1745 183.2 64.5975 182.894C65.0205 182.588 65.5155 182.435 66.0825 182.435C66.6675 182.435 67.1625 182.584 67.5675 182.881C67.9815 183.169 68.2155 183.614 68.2695 184.217H67.095C67.059 183.992 66.9465 183.817 66.7575 183.691C66.5775 183.565 66.3615 183.502 66.1095 183.502C65.8755 183.502 65.6685 183.556 65.4885 183.664C65.3175 183.763 65.2095 183.898 65.1645 184.069C65.1105 184.267 65.115 184.433 65.178 184.568C65.277 184.775 65.5245 184.937 65.9205 185.054L66.852 185.284C67.941 185.554 68.4855 186.166 68.4855 187.12C68.4855 187.687 68.247 188.146 67.77 188.497C67.302 188.839 66.726 189.01 66.042 189.01C65.439 189.01 64.899 188.826 64.422 188.456C63.954 188.087 63.711 187.597 63.693 186.985H64.8135C64.8675 187.318 65.0385 187.556 65.3265 187.7C65.6055 187.871 65.9385 187.943 66.3255 187.916C66.6135 187.898 66.843 187.813 67.014 187.66C67.185 187.507 67.275 187.318 67.284 187.093C67.293 186.877 67.221 186.706 67.068 186.58C66.915 186.454 66.708 186.359 66.447 186.296L65.583 186.094ZM74.9497 191.94H73.6672L74.9902 188.686L72.4657 182.57H73.7752L75.6652 187.133L77.5552 182.57H78.8647L74.9497 191.94ZM85.1833 188.092C84.5443 188.704 83.7658 189.01 82.8478 189.01C81.9298 189.01 81.1513 188.704 80.5123 188.092C79.8733 187.48 79.5538 186.683 79.5538 185.702C79.5538 184.73 79.8688 183.943 80.4988 183.34C81.1378 182.737 81.9208 182.435 82.8478 182.435C83.7748 182.435 84.5578 182.737 85.1968 183.34C85.8358 183.943 86.1553 184.73 86.1553 185.702C86.1553 186.674 85.8313 187.471 85.1833 188.092ZM81.3628 187.241C81.7678 187.628 82.2628 187.822 82.8478 187.822C83.4328 187.822 83.9233 187.628 84.3193 187.241C84.7243 186.845 84.9268 186.332 84.9268 185.702C84.9268 185.081 84.7243 184.582 84.3193 184.204C83.9233 183.826 83.4328 183.637 82.8478 183.637C82.2628 183.637 81.7678 183.826 81.3628 184.204C80.9668 184.582 80.7688 185.081 80.7688 185.702C80.7688 186.332 80.9668 186.845 81.3628 187.241ZM92.0967 185.972V182.57H93.3252V188.875H92.0967V187.93C91.9167 188.281 91.6422 188.551 91.2732 188.74C90.9042 188.92 90.5262 189.01 90.1392 189.01C89.3562 189.01 88.7532 188.767 88.3302 188.281C87.9072 187.795 87.7002 187.106 87.7092 186.215V182.57H88.9377V186.134C88.9377 186.656 89.0592 187.066 89.3022 187.363C89.5452 187.66 89.8827 187.808 90.3147 187.808C90.8187 187.808 91.2417 187.66 91.5837 187.363C91.9257 187.066 92.0967 186.602 92.0967 185.972ZM96.5992 186.58V188.875H95.3707V182.57H96.5992V183.988C96.9052 182.953 97.4902 182.435 98.3542 182.435C98.8492 182.435 99.2137 182.516 99.4477 182.678L99.2587 183.826C98.9617 183.682 98.6512 183.61 98.3272 183.61C97.7512 183.61 97.3192 183.884 97.0312 184.433C96.7432 184.973 96.5992 185.689 96.5992 186.58ZM108.856 188.875V187.903C108.649 188.254 108.343 188.528 107.938 188.726C107.533 188.916 107.101 189.01 106.642 189.01C105.751 189.01 104.995 188.704 104.374 188.092C103.762 187.48 103.456 186.688 103.456 185.716C103.456 184.735 103.762 183.943 104.374 183.34C104.986 182.737 105.737 182.435 106.628 182.435C107.105 182.435 107.542 182.53 107.938 182.719C108.343 182.899 108.649 183.164 108.856 183.515V179.141H110.084V188.875H108.856ZM108.221 187.241C108.635 186.854 108.842 186.341 108.842 185.702C108.842 185.063 108.631 184.559 108.208 184.19C107.785 183.821 107.299 183.637 106.75 183.637C106.174 183.637 105.688 183.83 105.292 184.217C104.905 184.595 104.711 185.09 104.711 185.702C104.711 186.314 104.905 186.818 105.292 187.214C105.688 187.61 106.174 187.808 106.75 187.808C107.326 187.808 107.816 187.619 108.221 187.241ZM117.135 188.875V187.903C116.928 188.254 116.622 188.528 116.217 188.726C115.812 188.916 115.38 189.01 114.921 189.01C114.03 189.01 113.274 188.704 112.653 188.092C112.032 187.48 111.722 186.688 111.722 185.716C111.722 184.735 112.032 183.943 112.653 183.34C113.274 182.737 114.03 182.435 114.921 182.435C115.38 182.435 115.812 182.53 116.217 182.719C116.631 182.908 116.937 183.173 117.135 183.515V182.57H118.35V188.875H117.135ZM117.122 185.702C117.122 185.063 116.91 184.559 116.487 184.19C116.064 183.821 115.578 183.637 115.029 183.637C114.444 183.637 113.954 183.83 113.558 184.217C113.171 184.595 112.977 185.09 112.977 185.702C112.977 186.314 113.175 186.818 113.571 187.214C113.967 187.61 114.453 187.808 115.029 187.808C115.614 187.808 116.109 187.619 116.514 187.241C116.919 186.863 117.122 186.35 117.122 185.702ZM122.107 191.94H120.825L122.148 188.686L119.623 182.57H120.933L122.823 187.133L124.713 182.57H126.022L122.107 191.94ZM131.155 182.287H129.994C129.994 181.441 130.25 180.761 130.763 180.248C131.276 179.726 131.906 179.465 132.653 179.465C133.409 179.465 134.057 179.708 134.597 180.194C135.146 180.68 135.421 181.315 135.421 182.098C135.421 182.728 135.236 183.268 134.867 183.718C134.498 184.168 134.035 184.478 133.477 184.649C133.153 184.748 132.91 184.865 132.748 185C132.595 185.135 132.518 185.347 132.518 185.635L132.491 186.377H131.303V185.635C131.303 185.023 131.456 184.559 131.762 184.244C132.077 183.92 132.527 183.668 133.112 183.488C133.409 183.407 133.666 183.232 133.882 182.962C134.107 182.692 134.219 182.404 134.219 182.098C134.219 181.675 134.062 181.333 133.747 181.072C133.432 180.802 133.067 180.667 132.653 180.667C132.248 180.667 131.897 180.815 131.6 181.112C131.303 181.409 131.155 181.801 131.155 182.287ZM131.276 188.767C131.105 188.605 131.02 188.402 131.02 188.159C131.02 187.916 131.105 187.714 131.276 187.552C131.456 187.39 131.668 187.309 131.911 187.309C132.154 187.309 132.361 187.39 132.532 187.552C132.703 187.714 132.788 187.916 132.788 188.159C132.788 188.402 132.703 188.605 132.532 188.767C132.361 188.92 132.154 188.997 131.911 188.997C131.668 188.997 131.456 188.92 131.276 188.767Z" fill="white"/>
<path d="M210.562 101.25C210.562 93.7942 216.607 87.75 224.062 87.75H361.313C368.768 87.75 374.812 93.7942 374.812 101.25V119.25C374.812 126.706 368.768 132.75 361.313 132.75H210.562V101.25Z" fill="#3D2A1F"/>
<path d="M232.014 113.482L232.959 114.278C232.536 114.782 232.019 115.178 231.407 115.466C230.804 115.745 230.147 115.885 229.436 115.885C228.122 115.885 227.006 115.421 226.088 114.494C225.179 113.567 224.724 112.442 224.724 111.119C224.724 109.796 225.179 108.671 226.088 107.744C227.006 106.808 228.122 106.34 229.436 106.34C230.138 106.34 230.79 106.48 231.393 106.759C231.996 107.038 232.509 107.425 232.932 107.92L231.987 108.703C231.285 107.938 230.435 107.555 229.436 107.555C228.464 107.555 227.645 107.902 226.979 108.595C226.313 109.288 225.98 110.129 225.98 111.119C225.98 112.109 226.313 112.951 226.979 113.644C227.645 114.328 228.464 114.67 229.436 114.67C230.48 114.67 231.339 114.274 232.014 113.482ZM239.299 115.75V114.778C239.092 115.129 238.786 115.403 238.381 115.601C237.976 115.791 237.544 115.885 237.085 115.885C236.194 115.885 235.438 115.579 234.817 114.967C234.196 114.355 233.885 113.563 233.885 112.591C233.885 111.61 234.196 110.818 234.817 110.215C235.438 109.612 236.194 109.31 237.085 109.31C237.544 109.31 237.976 109.405 238.381 109.594C238.795 109.783 239.101 110.048 239.299 110.39V109.445H240.514V115.75H239.299ZM239.285 112.577C239.285 111.938 239.074 111.434 238.651 111.065C238.228 110.696 237.742 110.512 237.193 110.512C236.608 110.512 236.117 110.705 235.721 111.092C235.334 111.47 235.141 111.965 235.141 112.577C235.141 113.189 235.339 113.693 235.735 114.089C236.131 114.485 236.617 114.683 237.193 114.683C237.778 114.683 238.273 114.494 238.678 114.116C239.083 113.738 239.285 113.225 239.285 112.577ZM243.798 112.348V115.75H242.57V109.445H243.798V110.39C243.978 110.039 244.253 109.774 244.622 109.594C245 109.405 245.382 109.31 245.769 109.31C246.552 109.31 247.151 109.553 247.565 110.039C247.988 110.525 248.199 111.214 248.199 112.105V115.75H246.971V112.186C246.971 111.664 246.845 111.254 246.593 110.957C246.35 110.66 246.012 110.512 245.58 110.512C245.085 110.512 244.662 110.665 244.311 110.971C243.969 111.268 243.798 111.727 243.798 112.348ZM260.374 115.75H259.362L257.647 111.119L255.987 115.75H254.988L252.585 109.445H253.894L255.474 113.86L257.053 109.445H258.241L259.821 113.86L261.4 109.445H262.71L260.374 115.75ZM264.698 112.105H268.613C268.541 111.583 268.329 111.173 267.978 110.876C267.636 110.57 267.209 110.417 266.696 110.417C266.165 110.417 265.715 110.57 265.346 110.876C264.986 111.173 264.77 111.583 264.698 112.105ZM269.828 112.577C269.828 112.811 269.823 112.973 269.814 113.063H264.698C264.77 113.585 264.99 114.004 265.359 114.319C265.737 114.625 266.196 114.778 266.736 114.778C267.123 114.778 267.479 114.692 267.803 114.521C268.127 114.35 268.374 114.112 268.545 113.806C268.662 113.851 268.842 113.923 269.085 114.022C269.328 114.112 269.499 114.175 269.598 114.211C269.337 114.751 268.946 115.165 268.424 115.453C267.902 115.741 267.326 115.885 266.696 115.885C265.778 115.885 265.008 115.579 264.387 114.967C263.775 114.355 263.469 113.558 263.469 112.577C263.469 111.596 263.775 110.809 264.387 110.215C265.008 109.612 265.778 109.31 266.696 109.31C267.605 109.31 268.352 109.612 268.937 110.215C269.531 110.809 269.828 111.596 269.828 112.577ZM275.841 116.655C276.021 116.997 276.278 117.262 276.611 117.451C276.953 117.64 277.304 117.734 277.664 117.734C279.158 117.734 279.905 116.78 279.905 114.872C279.905 114.854 279.9 114.832 279.891 114.805C279.891 114.769 279.891 114.742 279.891 114.724C279.711 115.084 279.41 115.367 278.987 115.574C278.573 115.782 278.136 115.885 277.677 115.885C276.786 115.885 276.03 115.583 275.409 114.98C274.788 114.377 274.478 113.59 274.478 112.618C274.478 111.637 274.788 110.84 275.409 110.228C276.03 109.616 276.786 109.31 277.677 109.31C278.136 109.31 278.568 109.409 278.973 109.607C279.387 109.805 279.693 110.08 279.891 110.431V109.445H281.106V114.791C281.106 117.528 279.959 118.896 277.664 118.896C277.07 118.896 276.521 118.747 276.017 118.45C275.513 118.153 275.112 117.735 274.815 117.195C274.878 117.168 275.058 117.073 275.355 116.911C275.652 116.749 275.814 116.664 275.841 116.655ZM279.878 112.604C279.878 111.956 279.675 111.448 279.27 111.079C278.865 110.701 278.37 110.512 277.785 110.512C277.209 110.512 276.723 110.71 276.327 111.106C275.931 111.502 275.733 112.001 275.733 112.604C275.733 113.234 275.927 113.738 276.314 114.116C276.71 114.494 277.2 114.683 277.785 114.683C278.334 114.683 278.82 114.494 279.243 114.116C279.666 113.738 279.878 113.234 279.878 112.604ZM288.36 114.967C287.721 115.579 286.943 115.885 286.025 115.885C285.107 115.885 284.328 115.579 283.689 114.967C283.05 114.355 282.731 113.558 282.731 112.577C282.731 111.605 283.046 110.818 283.676 110.215C284.315 109.612 285.098 109.31 286.025 109.31C286.952 109.31 287.735 109.612 288.374 110.215C289.013 110.818 289.332 111.605 289.332 112.577C289.332 113.549 289.008 114.346 288.36 114.967ZM284.54 114.116C284.945 114.503 285.44 114.697 286.025 114.697C286.61 114.697 287.1 114.503 287.496 114.116C287.901 113.72 288.104 113.207 288.104 112.577C288.104 111.956 287.901 111.457 287.496 111.079C287.1 110.701 286.61 110.512 286.025 110.512C285.44 110.512 284.945 110.701 284.54 111.079C284.144 111.457 283.946 111.956 283.946 112.577C283.946 113.207 284.144 113.72 284.54 114.116ZM296.017 109.445H297.353V110.485H296.017V115.75H294.788V110.485H293.654V109.445H294.788V107.069H296.017V109.445ZM303.864 114.967C303.225 115.579 302.446 115.885 301.528 115.885C300.61 115.885 299.832 115.579 299.193 114.967C298.554 114.355 298.234 113.558 298.234 112.577C298.234 111.605 298.549 110.818 299.179 110.215C299.818 109.612 300.601 109.31 301.528 109.31C302.455 109.31 303.238 109.612 303.877 110.215C304.516 110.818 304.836 111.605 304.836 112.577C304.836 113.549 304.512 114.346 303.864 114.967ZM300.043 114.116C300.448 114.503 300.943 114.697 301.528 114.697C302.113 114.697 302.604 114.503 303 114.116C303.405 113.72 303.607 113.207 303.607 112.577C303.607 111.956 303.405 111.457 303 111.079C302.604 110.701 302.113 110.512 301.528 110.512C300.943 110.512 300.448 110.701 300.043 111.079C299.647 111.457 299.449 111.956 299.449 112.577C299.449 113.207 299.647 113.72 300.043 114.116ZM313.72 110.512C313.207 110.503 312.798 110.674 312.492 111.025C312.195 111.367 312.046 111.808 312.046 112.348V115.75H310.818V112.172C310.818 111.659 310.692 111.254 310.44 110.957C310.197 110.66 309.868 110.512 309.454 110.512C308.968 110.512 308.554 110.665 308.212 110.971C307.87 111.277 307.699 111.736 307.699 112.348V115.75H306.471V109.445H307.699V110.39C307.852 110.075 308.1 109.828 308.442 109.648C308.793 109.468 309.126 109.364 309.441 109.337C309.684 109.328 309.913 109.342 310.129 109.378C310.93 109.504 311.479 109.913 311.776 110.606C312.226 109.742 312.955 109.31 313.963 109.31C314.746 109.31 315.345 109.553 315.759 110.039C316.182 110.525 316.393 111.214 316.393 112.105V115.75H315.165V112.186C315.165 111.664 315.034 111.254 314.773 110.957C314.521 110.66 314.17 110.512 313.72 110.512ZM323.573 114.967C322.934 115.579 322.156 115.885 321.238 115.885C320.32 115.885 319.541 115.579 318.902 114.967C318.263 114.355 317.944 113.558 317.944 112.577C317.944 111.605 318.259 110.818 318.889 110.215C319.528 109.612 320.311 109.31 321.238 109.31C322.165 109.31 322.948 109.612 323.587 110.215C324.226 110.818 324.545 111.605 324.545 112.577C324.545 113.549 324.221 114.346 323.573 114.967ZM319.753 114.116C320.158 114.503 320.653 114.697 321.238 114.697C321.823 114.697 322.313 114.503 322.709 114.116C323.114 113.72 323.317 113.207 323.317 112.577C323.317 111.956 323.114 111.457 322.709 111.079C322.313 110.701 321.823 110.512 321.238 110.512C320.653 110.512 320.158 110.701 319.753 111.079C319.357 111.457 319.159 111.956 319.159 112.577C319.159 113.207 319.357 113.72 319.753 114.116ZM327.409 113.455V115.75H326.18V109.445H327.409V110.863C327.715 109.828 328.3 109.31 329.164 109.31C329.659 109.31 330.023 109.391 330.257 109.553L330.068 110.701C329.771 110.557 329.461 110.485 329.137 110.485C328.561 110.485 328.129 110.759 327.841 111.308C327.553 111.848 327.409 112.564 327.409 113.455ZM332.735 113.455V115.75H331.506V109.445H332.735V110.863C333.041 109.828 333.626 109.31 334.49 109.31C334.985 109.31 335.349 109.391 335.583 109.553L335.394 110.701C335.097 110.557 334.787 110.485 334.463 110.485C333.887 110.485 333.455 110.759 333.167 111.308C332.879 111.848 332.735 112.564 332.735 113.455ZM341.885 114.967C341.246 115.579 340.468 115.885 339.55 115.885C338.632 115.885 337.853 115.579 337.214 114.967C336.575 114.355 336.256 113.558 336.256 112.577C336.256 111.605 336.571 110.818 337.201 110.215C337.84 109.612 338.623 109.31 339.55 109.31C340.477 109.31 341.26 109.612 341.899 110.215C342.538 110.818 342.857 111.605 342.857 112.577C342.857 113.549 342.533 114.346 341.885 114.967ZM338.065 114.116C338.47 114.503 338.965 114.697 339.55 114.697C340.135 114.697 340.625 114.503 341.021 114.116C341.426 113.72 341.629 113.207 341.629 112.577C341.629 111.956 341.426 111.457 341.021 111.079C340.625 110.701 340.135 110.512 339.55 110.512C338.965 110.512 338.47 110.701 338.065 111.079C337.669 111.457 337.471 111.956 337.471 112.577C337.471 113.207 337.669 113.72 338.065 114.116ZM351.394 115.75H350.381L348.667 111.119L347.006 115.75H346.007L343.604 109.445H344.914L346.493 113.86L348.073 109.445H349.261L350.84 113.86L352.42 109.445H353.729L351.394 115.75ZM358.932 109.162H357.771C357.771 108.316 358.027 107.636 358.54 107.123C359.053 106.601 359.683 106.34 360.43 106.34C361.186 106.34 361.834 106.583 362.374 107.069C362.923 107.555 363.198 108.19 363.198 108.973C363.198 109.603 363.013 110.143 362.644 110.593C362.275 111.043 361.812 111.353 361.254 111.524C360.93 111.623 360.687 111.74 360.525 111.875C360.372 112.01 360.295 112.222 360.295 112.51L360.268 113.252H359.08V112.51C359.08 111.898 359.233 111.434 359.539 111.119C359.854 110.795 360.304 110.543 360.889 110.363C361.186 110.282 361.443 110.107 361.659 109.837C361.884 109.567 361.996 109.279 361.996 108.973C361.996 108.55 361.839 108.208 361.524 107.947C361.209 107.677 360.844 107.542 360.43 107.542C360.025 107.542 359.674 107.69 359.377 107.987C359.08 108.284 358.932 108.676 358.932 109.162ZM359.053 115.642C358.882 115.48 358.797 115.277 358.797 115.034C358.797 114.791 358.882 114.589 359.053 114.427C359.233 114.265 359.445 114.184 359.688 114.184C359.931 114.184 360.138 114.265 360.309 114.427C360.48 114.589 360.565 114.791 360.565 115.034C360.565 115.277 360.48 115.48 360.309 115.642C360.138 115.795 359.931 115.872 359.688 115.872C359.445 115.872 359.233 115.795 359.053 115.642Z" fill="white"/>
</svg>
